<svg xmlns="http://www.w3.org/2000/svg" xmlns:xlink="http://www.w3.org/1999/xlink" width="50" zoomAndPan="magnify" viewBox="0 0 37.5 32.999998" height="44" preserveAspectRatio="xMidYMid meet" version="1.0"><defs><clipPath id="f17a35076a"><path d="M 10 1.089844 L 36 1.089844 L 36 19 L 10 19 Z M 10 1.089844 " clip-rule="nonzero"/></clipPath><clipPath id="c7148b10e8"><path d="M 0.882812 18 L 36.882812 18 L 36.882812 32.589844 L 0.882812 32.589844 Z M 0.882812 18 " clip-rule="nonzero"/></clipPath></defs><g clip-path="url(#f17a35076a)"><path fill="#000000" d="M 10.542969 11.402344 L 10.542969 13.734375 C 10.542969 14.066406 10.8125 14.339844 11.144531 14.339844 L 16.019531 14.339844 C 15.988281 14.609375 15.972656 14.890625 15.972656 15.167969 L 15.972656 17.582031 C 15.972656 17.917969 16.246094 18.1875 16.578125 18.1875 L 29.851562 18.1875 C 30.183594 18.1875 30.457031 17.917969 30.457031 17.582031 L 30.457031 15.167969 C 30.457031 14.890625 30.441406 14.609375 30.410156 14.339844 L 35.285156 14.339844 C 35.617188 14.339844 35.886719 14.066406 35.886719 13.734375 L 35.886719 11.402344 C 35.886719 9.128906 34.410156 7.203125 32.363281 6.523438 C 32.9375 5.953125 33.285156 5.160156 33.285156 4.285156 C 33.285156 2.523438 31.851562 1.089844 30.09375 1.089844 C 28.375 1.089844 26.972656 2.457031 26.902344 4.15625 C 26.480469 2.394531 24.898438 1.089844 23.011719 1.089844 C 21.222656 1.089844 19.707031 2.261719 19.1875 3.882812 C 18.992188 2.3125 17.648438 1.089844 16.027344 1.089844 C 14.269531 1.089844 12.835938 2.523438 12.835938 4.285156 C 12.835938 5.195312 13.21875 6.027344 13.847656 6.609375 C 11.914062 7.347656 10.542969 9.21875 10.542969 11.402344 Z M 34.679688 11.402344 L 34.679688 13.128906 L 30.164062 13.128906 C 29.625 11.304688 28.390625 9.769531 26.761719 8.851562 C 27.5 7.980469 28.585938 7.46875 29.746094 7.46875 L 30.757812 7.46875 C 32.921875 7.476562 34.679688 9.234375 34.679688 11.402344 Z M 30.09375 2.296875 C 31.1875 2.296875 32.078125 3.1875 32.078125 4.285156 C 32.078125 5.378906 31.1875 6.269531 30.09375 6.269531 C 29 6.269531 28.109375 5.378906 28.109375 4.285156 C 28.109375 3.1875 29 2.296875 30.09375 2.296875 Z M 27.023438 5.144531 C 27.183594 5.710938 27.492188 6.214844 27.914062 6.609375 C 27.015625 6.957031 26.226562 7.542969 25.636719 8.335938 C 25.582031 8.3125 25.53125 8.300781 25.476562 8.285156 C 26.40625 7.550781 27.015625 6.417969 27.023438 5.144531 Z M 23.011719 2.296875 C 24.558594 2.296875 25.824219 3.558594 25.824219 5.113281 C 25.824219 6.667969 24.566406 7.929688 23.011719 7.929688 C 21.457031 7.929688 20.199219 6.660156 20.199219 5.113281 C 20.199219 3.566406 21.457031 2.296875 23.011719 2.296875 Z M 23.214844 9.128906 C 26.542969 9.128906 29.25 11.839844 29.25 15.167969 L 29.25 16.980469 L 17.179688 16.980469 L 17.179688 15.167969 C 17.179688 11.839844 19.886719 9.128906 23.214844 9.128906 Z M 19.007812 5.40625 C 19.050781 6.035156 19.238281 6.625 19.542969 7.136719 C 19.15625 6.871094 18.734375 6.667969 18.289062 6.523438 C 18.597656 6.207031 18.847656 5.832031 19.007812 5.40625 Z M 16.019531 2.296875 C 17.113281 2.296875 18.003906 3.1875 18.003906 4.285156 C 18.003906 5.378906 17.113281 6.269531 16.019531 6.269531 C 14.925781 6.269531 14.035156 5.378906 14.035156 4.285156 C 14.035156 3.1875 14.925781 2.296875 16.019531 2.296875 Z M 15.671875 7.476562 L 16.683594 7.476562 C 17.84375 7.476562 18.921875 7.980469 19.667969 8.859375 C 18.039062 9.777344 16.804688 11.3125 16.269531 13.136719 L 11.75 13.136719 L 11.75 11.410156 C 11.75 9.234375 13.507812 7.476562 15.671875 7.476562 Z M 15.671875 7.476562 " fill-opacity="1" fill-rule="nonzero"/></g><g clip-path="url(#c7148b10e8)"><path fill="#000000" d="M 6.5 18.601562 L 1.492188 18.601562 C 1.160156 18.601562 0.886719 18.875 0.886719 19.207031 L 0.886719 30.378906 C 0.886719 30.710938 1.160156 30.984375 1.492188 30.984375 L 6.5 30.984375 C 6.832031 30.984375 7.101562 30.710938 7.101562 30.378906 L 7.101562 29.421875 L 9.515625 29.421875 L 16.675781 31.691406 C 18.296875 32.296875 19.664062 32.589844 21.019531 32.589844 C 22.386719 32.589844 23.75 32.289062 25.378906 31.683594 C 25.441406 31.660156 25.5 31.632812 25.554688 31.585938 L 36.039062 23.027344 C 36.070312 22.996094 36.097656 22.964844 36.128906 22.9375 C 36.875 22.007812 36.839844 20.589844 36.039062 19.703125 C 35.246094 18.820312 33.972656 18.730469 33.082031 19.5 L 27.847656 23.734375 C 27.847656 23.683594 27.847656 23.628906 27.847656 23.578125 C 27.824219 22.316406 26.835938 21.28125 25.636719 21.28125 L 19.820312 21.28125 C 19.488281 21.28125 19.171875 21.085938 18.976562 20.761719 C 18.929688 20.695312 18.878906 20.632812 18.808594 20.582031 C 16.34375 18.792969 13.226562 18.453125 10.488281 19.675781 L 9.480469 20.128906 L 7.101562 20.128906 L 7.101562 19.207031 C 7.101562 18.875 6.839844 18.601562 6.5 18.601562 Z M 3.90625 28.867188 C 3.574219 28.867188 3.300781 28.597656 3.300781 28.265625 C 3.300781 27.933594 3.574219 27.660156 3.90625 27.660156 C 4.238281 27.660156 4.507812 27.933594 4.507812 28.265625 C 4.507812 28.597656 4.238281 28.867188 3.90625 28.867188 Z M 5.894531 20.738281 L 5.894531 29.773438 L 4.90625 29.773438 C 5.390625 29.449219 5.714844 28.898438 5.714844 28.265625 C 5.714844 27.269531 4.898438 26.453125 3.90625 26.453125 C 2.910156 26.453125 2.09375 27.269531 2.09375 28.265625 C 2.09375 28.890625 2.417969 29.449219 2.902344 29.773438 L 2.09375 29.773438 L 2.09375 19.8125 L 5.894531 19.8125 Z M 9.613281 21.34375 C 9.699219 21.34375 9.78125 21.328125 9.855469 21.289062 L 10.988281 20.785156 C 13.296875 19.757812 15.914062 20.03125 18.019531 21.5 C 18.441406 22.128906 19.105469 22.492188 19.828125 22.492188 L 25.644531 22.492188 C 26.1875 22.492188 26.640625 22.988281 26.648438 23.59375 C 26.65625 23.933594 26.535156 24.25 26.316406 24.46875 C 26.210938 24.574219 26.082031 24.65625 25.953125 24.703125 C 25.78125 24.730469 25.605469 24.746094 25.433594 24.746094 L 18.960938 24.746094 C 18.628906 24.746094 18.355469 25.019531 18.355469 25.351562 C 18.355469 25.683594 18.628906 25.957031 18.960938 25.957031 L 25.703125 25.957031 C 25.886719 25.957031 26.066406 25.933594 26.238281 25.886719 C 26.996094 25.75 27.703125 25.417969 28.328125 24.921875 L 33.867188 20.4375 C 33.875 20.429688 33.875 20.429688 33.882812 20.421875 C 34.273438 20.082031 34.808594 20.128906 35.164062 20.511719 C 35.554688 20.941406 35.585938 21.660156 35.238281 22.136719 L 24.890625 30.589844 C 21.964844 31.660156 20.054688 31.648438 17.105469 30.550781 C 17.097656 30.550781 17.089844 30.542969 17.074219 30.542969 L 9.820312 28.234375 C 9.757812 28.21875 9.699219 28.203125 9.636719 28.203125 L 7.101562 28.203125 L 7.101562 21.335938 L 9.613281 21.335938 Z M 9.613281 21.34375 " fill-opacity="1" fill-rule="nonzero"/></g></svg>