<svg xmlns="http://www.w3.org/2000/svg" xmlns:xlink="http://www.w3.org/1999/xlink" width="350" zoomAndPan="magnify" viewBox="0 0 262.5 107.249998" height="143" preserveAspectRatio="xMidYMid meet" version="1.0"><defs><g/><clipPath id="683ab199d0"><path d="M 0.664062 0 L 261.339844 0 L 261.339844 106.503906 L 0.664062 106.503906 Z M 0.664062 0 " clip-rule="nonzero"/></clipPath><clipPath id="900ed67bdd"><path d="M 0.824219 0.140625 L 92.605469 0.140625 L 92.605469 106.101562 L 0.824219 106.101562 Z M 0.824219 0.140625 " clip-rule="nonzero"/></clipPath></defs><g clip-path="url(#683ab199d0)"><path fill="#ffffff" d="M 0.664062 0 L 261.835938 0 L 261.835938 114.171875 L 0.664062 114.171875 Z M 0.664062 0 " fill-opacity="1" fill-rule="nonzero"/><path fill="#ffffff" d="M 0.664062 0 L 261.835938 0 L 261.835938 106.707031 L 0.664062 106.707031 Z M 0.664062 0 " fill-opacity="1" fill-rule="nonzero"/><path fill="#ffffff" d="M 0.664062 0 L 261.835938 0 L 261.835938 106.707031 L 0.664062 106.707031 Z M 0.664062 0 " fill-opacity="1" fill-rule="nonzero"/></g><g fill="#000000" fill-opacity="1"><g transform="translate(104.471402, 45.032336)"><g><path d="M 6.234375 0.179688 C 3.382812 0.207031 1.453125 -1.394531 0.832031 -4.304688 L 4.066406 -5.285156 C 4.363281 -4.125 5.136719 -3.445312 6.234375 -3.445312 C 7.421875 -3.445312 8.105469 -3.800781 8.105469 -4.421875 C 8.105469 -6.085938 0.535156 -5.996094 0.535156 -10.6875 C 0.535156 -13.476562 2.523438 -15.050781 6.117188 -15.050781 C 8.996094 -15.050781 10.925781 -13.449219 11.546875 -10.539062 L 8.28125 -9.558594 C 8.046875 -10.777344 7.242188 -11.460938 6.117188 -11.460938 C 4.929688 -11.460938 4.246094 -11.101562 4.246094 -10.449219 C 4.246094 -8.996094 11.84375 -8.875 11.84375 -4.1875 C 11.84375 -1.335938 9.828125 0.238281 6.234375 0.179688 Z M 6.234375 0.179688 "/></g></g></g><g fill="#000000" fill-opacity="1"><g transform="translate(119.279043, 45.032336)"><g><path d="M 0.832031 -14.84375 L 0.832031 -6.5 C 0.832031 -2.226562 2.761719 0.207031 6.117188 0.207031 C 9.5 0.207031 11.398438 -2.226562 11.398438 -6.5 L 11.398438 -14.84375 L 7.453125 -14.84375 L 7.453125 -6.5 C 7.453125 -4.71875 6.976562 -3.742188 6.144531 -3.742188 C 5.285156 -3.742188 4.78125 -4.71875 4.78125 -6.5 L 4.78125 -14.84375 Z M 0.832031 -14.84375 "/></g></g></g><g fill="#000000" fill-opacity="1"><g transform="translate(133.90858, 45.032336)"><g><path d="M 6.886719 -14.84375 L 0.832031 -14.84375 L 0.832031 0 L 4.78125 0 L 4.78125 -5.253906 L 7.332031 -5.253906 C 9.945312 -5.523438 11.398438 -7.183594 11.398438 -10.003906 C 11.398438 -13.09375 9.765625 -14.84375 6.886719 -14.84375 Z M 6.5625 -8.789062 L 4.78125 -8.789062 L 4.78125 -11.25 L 6.5625 -11.25 C 7.390625 -11.222656 7.898438 -10.804688 7.898438 -10.003906 C 7.898438 -9.234375 7.390625 -8.789062 6.5625 -8.789062 Z M 6.5625 -8.789062 "/></g></g></g><g fill="#000000" fill-opacity="1"><g transform="translate(148.270943, 45.032336)"><g><path d="M 6.886719 -14.84375 L 0.832031 -14.84375 L 0.832031 0 L 4.78125 0 L 4.78125 -5.253906 L 7.332031 -5.253906 C 9.945312 -5.523438 11.398438 -7.183594 11.398438 -10.003906 C 11.398438 -13.09375 9.765625 -14.84375 6.886719 -14.84375 Z M 6.5625 -8.789062 L 4.78125 -8.789062 L 4.78125 -11.25 L 6.5625 -11.25 C 7.390625 -11.222656 7.898438 -10.804688 7.898438 -10.003906 C 7.898438 -9.234375 7.390625 -8.789062 6.5625 -8.789062 Z M 6.5625 -8.789062 "/></g></g></g><g fill="#000000" fill-opacity="1"><g transform="translate(162.633307, 45.032336)"><g><path d="M 4.78125 -11.25 L 10.0625 -11.25 L 10.0625 -14.84375 L 0.832031 -14.84375 L 0.832031 0 L 10.0625 0 L 10.0625 -3.59375 L 4.78125 -3.59375 L 4.78125 -5.671875 L 10.0625 -5.671875 L 10.0625 -9.171875 L 4.78125 -9.171875 Z M 4.78125 -11.25 "/></g></g></g><g fill="#000000" fill-opacity="1"><g transform="translate(175.897305, 45.032336)"><g><path d="M 9.914062 -6.414062 C 10.894531 -7.183594 11.398438 -8.429688 11.398438 -10.09375 C 11.398438 -13.121094 9.765625 -14.84375 6.886719 -14.84375 L 0.832031 -14.84375 L 0.832031 0 L 4.78125 0 L 4.78125 -5.3125 L 6.117188 -5.3125 C 7.15625 -5.015625 7.71875 -4.1875 7.71875 -2.910156 L 7.71875 0 L 11.339844 0 L 11.339844 -2.433594 C 11.339844 -4.214844 10.835938 -5.550781 9.914062 -6.414062 Z M 6.5625 -8.789062 L 4.78125 -8.789062 L 4.78125 -11.25 L 6.5625 -11.25 C 7.390625 -11.25 7.898438 -10.804688 7.898438 -10.003906 C 7.898438 -9.234375 7.390625 -8.789062 6.5625 -8.789062 Z M 6.5625 -8.789062 "/></g></g></g><g fill="#000000" fill-opacity="1"><g transform="translate(190.378409, 45.032336)"><g><path d="M 7.6875 -6.117188 L 11.488281 -5.433594 C 10.867188 -1.8125 8.964844 0.207031 6.175781 0.207031 C 2.640625 0.207031 0.683594 -2.554688 0.683594 -7.421875 C 0.683594 -12.289062 2.640625 -15.050781 6.175781 -15.050781 C 8.964844 -15.050781 10.894531 -13.03125 11.488281 -9.441406 L 7.6875 -8.726562 C 7.480469 -10.273438 6.945312 -11.101562 6.175781 -11.101562 C 5.136719 -11.101562 4.542969 -9.796875 4.542969 -7.421875 C 4.542969 -5.046875 5.136719 -3.742188 6.175781 -3.742188 C 6.976562 -3.742188 7.539062 -4.601562 7.6875 -6.117188 Z M 7.6875 -6.117188 "/></g></g></g><g fill="#000000" fill-opacity="1"><g transform="translate(204.918888, 45.032336)"><g><path d="M 10.0625 -3.949219 L 4.78125 -3.949219 L 4.78125 -14.84375 L 0.832031 -14.84375 L 0.832031 0 L 10.0625 0 Z M 10.0625 -3.949219 "/></g></g></g><g fill="#000000" fill-opacity="1"><g transform="translate(218.064147, 45.032336)"><g><path d="M 4.78125 -11.25 L 10.0625 -11.25 L 10.0625 -14.84375 L 0.832031 -14.84375 L 0.832031 0 L 10.0625 0 L 10.0625 -3.59375 L 4.78125 -3.59375 L 4.78125 -5.671875 L 10.0625 -5.671875 L 10.0625 -9.171875 L 4.78125 -9.171875 Z M 4.78125 -11.25 "/></g></g></g><g fill="#000000" fill-opacity="1"><g transform="translate(231.328146, 45.032336)"><g><path d="M 8.640625 -2.136719 L 9.261719 0 L 13.09375 0 L 8.667969 -14.84375 L 4.660156 -14.84375 L 0.179688 0 L 4.039062 0 L 4.632812 -2.136719 Z M 7.628906 -5.609375 L 5.699219 -5.609375 L 6.648438 -9.886719 Z M 7.628906 -5.609375 "/></g></g></g><g fill="#000000" fill-opacity="1"><g transform="translate(246.96699, 45.032336)"><g><path d="M 0.832031 0 L 4.78125 0 L 4.78125 -6.945312 L 8.105469 0 L 11.398438 0 L 11.398438 -14.84375 L 7.453125 -14.84375 L 7.453125 -7.925781 L 4.125 -14.84375 L 0.832031 -14.84375 Z M 0.832031 0 "/></g></g></g><g fill="#000000" fill-opacity="1"><g transform="translate(104.471402, 57.124738)"><g><path d="M 1.5 0 L 1.5 -6.46875 L 2.390625 -6.46875 L 2.390625 0 Z M 1.5 0 "/></g></g></g><g fill="#000000" fill-opacity="1"><g transform="translate(112.671444, 57.124738)"><g><path d="M 6.3125 -4.59375 L 6.3125 0 L 5.40625 0 L 5.40625 -0.78125 C 5.289062 -0.632812 5.132812 -0.492188 4.9375 -0.359375 C 4.738281 -0.234375 4.503906 -0.125 4.234375 -0.03125 C 3.972656 0.0507812 3.695312 0.09375 3.40625 0.09375 C 2.894531 0.09375 2.445312 -0.0078125 2.0625 -0.21875 C 1.675781 -0.425781 1.375 -0.707031 1.15625 -1.0625 C 0.945312 -1.425781 0.84375 -1.835938 0.84375 -2.296875 C 0.84375 -2.765625 0.953125 -3.175781 1.171875 -3.53125 C 1.398438 -3.894531 1.710938 -4.175781 2.109375 -4.375 C 2.503906 -4.582031 2.960938 -4.6875 3.484375 -4.6875 C 3.910156 -4.6875 4.289062 -4.613281 4.625 -4.46875 C 4.96875 -4.320312 5.226562 -4.148438 5.40625 -3.953125 L 5.40625 -4.59375 Z M 3.609375 -0.75 C 3.972656 -0.75 4.289062 -0.816406 4.5625 -0.953125 C 4.84375 -1.085938 5.054688 -1.269531 5.203125 -1.5 C 5.359375 -1.738281 5.4375 -2.003906 5.4375 -2.296875 C 5.4375 -2.597656 5.359375 -2.863281 5.203125 -3.09375 C 5.054688 -3.332031 4.84375 -3.515625 4.5625 -3.640625 C 4.289062 -3.773438 3.972656 -3.84375 3.609375 -3.84375 C 3.242188 -3.84375 2.921875 -3.773438 2.640625 -3.640625 C 2.367188 -3.515625 2.15625 -3.332031 2 -3.09375 C 1.84375 -2.863281 1.765625 -2.597656 1.765625 -2.296875 C 1.765625 -2.003906 1.84375 -1.738281 2 -1.5 C 2.15625 -1.269531 2.367188 -1.085938 2.640625 -0.953125 C 2.921875 -0.816406 3.242188 -0.75 3.609375 -0.75 Z M 3.609375 -0.75 "/></g></g></g><g fill="#000000" fill-opacity="1"><g transform="translate(124.713351, 57.124738)"><g><path d="M 5.328125 -2.265625 L 5.328125 -4.59375 L 6.234375 -4.59375 L 6.234375 0 L 5.328125 0 L 5.328125 -0.78125 C 5.160156 -0.5625 4.910156 -0.359375 4.578125 -0.171875 C 4.242188 0.00390625 3.835938 0.09375 3.359375 0.09375 C 2.972656 0.09375 2.632812 0.00390625 2.34375 -0.171875 C 2.0625 -0.359375 1.835938 -0.613281 1.671875 -0.9375 C 1.515625 -1.269531 1.4375 -1.671875 1.4375 -2.140625 L 1.4375 -4.59375 L 2.34375 -4.59375 L 2.34375 -2.4375 C 2.34375 -1.914062 2.453125 -1.507812 2.671875 -1.21875 C 2.890625 -0.925781 3.242188 -0.78125 3.734375 -0.78125 C 4.023438 -0.78125 4.289062 -0.835938 4.53125 -0.953125 C 4.769531 -1.078125 4.960938 -1.25 5.109375 -1.46875 C 5.253906 -1.6875 5.328125 -1.953125 5.328125 -2.265625 Z M 5.328125 -2.265625 "/></g></g></g><g fill="#000000" fill-opacity="1"><g transform="translate(136.667738, 57.124738)"><g><path d="M 4.28125 -4.6875 C 4.75 -4.6875 5.128906 -4.597656 5.421875 -4.421875 C 5.722656 -4.242188 5.941406 -4.003906 6.078125 -3.703125 C 6.222656 -3.410156 6.296875 -3.085938 6.296875 -2.734375 L 6.296875 0 L 5.40625 0 L 5.40625 -2.609375 C 5.40625 -2.984375 5.273438 -3.285156 5.015625 -3.515625 C 4.765625 -3.753906 4.441406 -3.867188 4.046875 -3.859375 C 3.742188 -3.859375 3.472656 -3.785156 3.234375 -3.640625 C 2.992188 -3.503906 2.804688 -3.332031 2.671875 -3.125 C 2.535156 -2.925781 2.46875 -2.726562 2.46875 -2.53125 L 2.46875 0 L 1.5625 0 L 1.5625 -4.59375 L 2.46875 -4.59375 L 2.46875 -3.78125 C 2.65625 -4.019531 2.90625 -4.226562 3.21875 -4.40625 C 3.53125 -4.59375 3.882812 -4.6875 4.28125 -4.6875 Z M 4.28125 -4.6875 "/></g></g></g><g fill="#000000" fill-opacity="1"><g transform="translate(148.805902, 57.124738)"><g><path d="M 6.3125 -6.46875 L 6.3125 0 L 5.421875 0 L 5.421875 -0.765625 C 5.304688 -0.617188 5.144531 -0.476562 4.9375 -0.34375 C 4.738281 -0.21875 4.507812 -0.113281 4.25 -0.03125 C 4 0.0507812 3.726562 0.09375 3.4375 0.09375 C 2.914062 0.09375 2.460938 -0.0078125 2.078125 -0.21875 C 1.691406 -0.425781 1.390625 -0.707031 1.171875 -1.0625 C 0.960938 -1.425781 0.859375 -1.835938 0.859375 -2.296875 C 0.859375 -2.765625 0.96875 -3.175781 1.1875 -3.53125 C 1.40625 -3.894531 1.710938 -4.175781 2.109375 -4.375 C 2.503906 -4.582031 2.957031 -4.6875 3.46875 -4.6875 C 3.894531 -4.6875 4.28125 -4.613281 4.625 -4.46875 C 4.96875 -4.320312 5.234375 -4.148438 5.421875 -3.953125 L 5.421875 -6.46875 Z M 3.609375 -0.71875 C 3.984375 -0.71875 4.304688 -0.785156 4.578125 -0.921875 C 4.847656 -1.066406 5.0625 -1.257812 5.21875 -1.5 C 5.375 -1.738281 5.453125 -2.003906 5.453125 -2.296875 C 5.453125 -2.597656 5.375 -2.863281 5.21875 -3.09375 C 5.0625 -3.332031 4.847656 -3.519531 4.578125 -3.65625 C 4.304688 -3.800781 3.984375 -3.875 3.609375 -3.875 C 3.253906 -3.875 2.9375 -3.800781 2.65625 -3.65625 C 2.375 -3.519531 2.15625 -3.332031 2 -3.09375 C 1.851562 -2.863281 1.78125 -2.597656 1.78125 -2.296875 C 1.78125 -2.003906 1.851562 -1.738281 2 -1.5 C 2.15625 -1.257812 2.375 -1.066406 2.65625 -0.921875 C 2.9375 -0.785156 3.253906 -0.71875 3.609375 -0.71875 Z M 3.609375 -0.71875 "/></g></g></g><g fill="#000000" fill-opacity="1"><g transform="translate(160.725295, 57.124738)"><g><path d="M 4.890625 -3.53125 C 4.773438 -3.59375 4.640625 -3.640625 4.484375 -3.671875 C 4.328125 -3.710938 4.175781 -3.734375 4.03125 -3.734375 C 3.726562 -3.734375 3.457031 -3.664062 3.21875 -3.53125 C 2.988281 -3.394531 2.804688 -3.21875 2.671875 -3 C 2.535156 -2.789062 2.46875 -2.570312 2.46875 -2.34375 L 2.46875 0 L 1.5625 0 L 1.5625 -4.59375 L 2.46875 -4.59375 L 2.46875 -3.609375 C 2.65625 -3.929688 2.90625 -4.191406 3.21875 -4.390625 C 3.53125 -4.585938 3.851562 -4.6875 4.1875 -4.6875 C 4.375 -4.6875 4.550781 -4.664062 4.71875 -4.625 C 4.894531 -4.59375 5.03125 -4.546875 5.125 -4.484375 Z M 4.890625 -3.53125 "/></g></g></g><g fill="#000000" fill-opacity="1"><g transform="translate(170.920646, 57.124738)"><g><path d="M 2.296875 2.015625 L 3.265625 0.234375 L 0.703125 -4.59375 L 1.765625 -4.59375 L 3.140625 -1.84375 C 3.265625 -1.59375 3.378906 -1.359375 3.484375 -1.140625 C 3.597656 -0.921875 3.679688 -0.722656 3.734375 -0.546875 C 3.804688 -0.734375 3.890625 -0.929688 3.984375 -1.140625 C 4.078125 -1.359375 4.191406 -1.597656 4.328125 -1.859375 L 5.59375 -4.59375 L 6.65625 -4.59375 L 4.28125 -0.015625 L 3.265625 2.015625 Z M 2.296875 2.015625 "/></g></g></g><g fill="#000000" fill-opacity="1"><g transform="translate(182.57748, 57.124738)"><g/></g></g><g fill="#000000" fill-opacity="1"><g transform="translate(190.611235, 57.124738)"><g><path d="M 4.828125 -3.34375 C 4.597656 -3.519531 4.328125 -3.664062 4.015625 -3.78125 C 3.703125 -3.894531 3.398438 -3.953125 3.109375 -3.953125 C 2.941406 -3.953125 2.757812 -3.9375 2.5625 -3.90625 C 2.375 -3.875 2.207031 -3.816406 2.0625 -3.734375 C 1.925781 -3.660156 1.859375 -3.546875 1.859375 -3.390625 C 1.859375 -3.253906 1.921875 -3.144531 2.046875 -3.0625 C 2.179688 -2.976562 2.351562 -2.90625 2.5625 -2.84375 C 2.78125 -2.789062 3.019531 -2.738281 3.28125 -2.6875 C 3.53125 -2.644531 3.773438 -2.59375 4.015625 -2.53125 C 4.265625 -2.46875 4.488281 -2.390625 4.6875 -2.296875 C 4.882812 -2.203125 5.039062 -2.078125 5.15625 -1.921875 C 5.28125 -1.773438 5.34375 -1.59375 5.34375 -1.375 C 5.34375 -1.050781 5.242188 -0.78125 5.046875 -0.5625 C 4.859375 -0.351562 4.601562 -0.191406 4.28125 -0.078125 C 3.96875 0.0351562 3.617188 0.09375 3.234375 0.09375 C 2.753906 0.09375 2.304688 0.03125 1.890625 -0.09375 C 1.484375 -0.226562 1.140625 -0.453125 0.859375 -0.765625 L 1.46875 -1.328125 C 1.675781 -1.117188 1.921875 -0.957031 2.203125 -0.84375 C 2.492188 -0.726562 2.820312 -0.671875 3.1875 -0.671875 C 3.363281 -0.671875 3.546875 -0.6875 3.734375 -0.71875 C 3.929688 -0.75 4.097656 -0.800781 4.234375 -0.875 C 4.367188 -0.957031 4.4375 -1.082031 4.4375 -1.25 C 4.4375 -1.375 4.367188 -1.476562 4.234375 -1.5625 C 4.097656 -1.644531 3.921875 -1.710938 3.703125 -1.765625 C 3.484375 -1.816406 3.25 -1.863281 3 -1.90625 C 2.71875 -1.957031 2.453125 -2.015625 2.203125 -2.078125 C 1.960938 -2.140625 1.75 -2.21875 1.5625 -2.3125 C 1.375 -2.414062 1.226562 -2.550781 1.125 -2.71875 C 1.019531 -2.882812 0.96875 -3.097656 0.96875 -3.359375 C 0.96875 -3.628906 1.0625 -3.863281 1.25 -4.0625 C 1.4375 -4.257812 1.691406 -4.410156 2.015625 -4.515625 C 2.347656 -4.628906 2.710938 -4.6875 3.109375 -4.6875 C 3.347656 -4.6875 3.601562 -4.660156 3.875 -4.609375 C 4.15625 -4.566406 4.421875 -4.488281 4.671875 -4.375 C 4.921875 -4.269531 5.132812 -4.128906 5.3125 -3.953125 Z M 4.828125 -3.34375 "/></g></g></g><g fill="#000000" fill-opacity="1"><g transform="translate(201.095389, 57.124738)"><g><path d="M 2.296875 2.015625 L 3.265625 0.234375 L 0.703125 -4.59375 L 1.765625 -4.59375 L 3.140625 -1.84375 C 3.265625 -1.59375 3.378906 -1.359375 3.484375 -1.140625 C 3.597656 -0.921875 3.679688 -0.722656 3.734375 -0.546875 C 3.804688 -0.734375 3.890625 -0.929688 3.984375 -1.140625 C 4.078125 -1.359375 4.191406 -1.597656 4.328125 -1.859375 L 5.59375 -4.59375 L 6.65625 -4.59375 L 4.28125 -0.015625 L 3.265625 2.015625 Z M 2.296875 2.015625 "/></g></g></g><g fill="#000000" fill-opacity="1"><g transform="translate(212.752229, 57.124738)"><g><path d="M 4.828125 -3.34375 C 4.597656 -3.519531 4.328125 -3.664062 4.015625 -3.78125 C 3.703125 -3.894531 3.398438 -3.953125 3.109375 -3.953125 C 2.941406 -3.953125 2.757812 -3.9375 2.5625 -3.90625 C 2.375 -3.875 2.207031 -3.816406 2.0625 -3.734375 C 1.925781 -3.660156 1.859375 -3.546875 1.859375 -3.390625 C 1.859375 -3.253906 1.921875 -3.144531 2.046875 -3.0625 C 2.179688 -2.976562 2.351562 -2.90625 2.5625 -2.84375 C 2.78125 -2.789062 3.019531 -2.738281 3.28125 -2.6875 C 3.53125 -2.644531 3.773438 -2.59375 4.015625 -2.53125 C 4.265625 -2.46875 4.488281 -2.390625 4.6875 -2.296875 C 4.882812 -2.203125 5.039062 -2.078125 5.15625 -1.921875 C 5.28125 -1.773438 5.34375 -1.59375 5.34375 -1.375 C 5.34375 -1.050781 5.242188 -0.78125 5.046875 -0.5625 C 4.859375 -0.351562 4.601562 -0.191406 4.28125 -0.078125 C 3.96875 0.0351562 3.617188 0.09375 3.234375 0.09375 C 2.753906 0.09375 2.304688 0.03125 1.890625 -0.09375 C 1.484375 -0.226562 1.140625 -0.453125 0.859375 -0.765625 L 1.46875 -1.328125 C 1.675781 -1.117188 1.921875 -0.957031 2.203125 -0.84375 C 2.492188 -0.726562 2.820312 -0.671875 3.1875 -0.671875 C 3.363281 -0.671875 3.546875 -0.6875 3.734375 -0.71875 C 3.929688 -0.75 4.097656 -0.800781 4.234375 -0.875 C 4.367188 -0.957031 4.4375 -1.082031 4.4375 -1.25 C 4.4375 -1.375 4.367188 -1.476562 4.234375 -1.5625 C 4.097656 -1.644531 3.921875 -1.710938 3.703125 -1.765625 C 3.484375 -1.816406 3.25 -1.863281 3 -1.90625 C 2.71875 -1.957031 2.453125 -2.015625 2.203125 -2.078125 C 1.960938 -2.140625 1.75 -2.21875 1.5625 -2.3125 C 1.375 -2.414062 1.226562 -2.550781 1.125 -2.71875 C 1.019531 -2.882812 0.96875 -3.097656 0.96875 -3.359375 C 0.96875 -3.628906 1.0625 -3.863281 1.25 -4.0625 C 1.4375 -4.257812 1.691406 -4.410156 2.015625 -4.515625 C 2.347656 -4.628906 2.710938 -4.6875 3.109375 -4.6875 C 3.347656 -4.6875 3.601562 -4.660156 3.875 -4.609375 C 4.15625 -4.566406 4.421875 -4.488281 4.671875 -4.375 C 4.921875 -4.269531 5.132812 -4.128906 5.3125 -3.953125 Z M 4.828125 -3.34375 "/></g></g></g><g fill="#000000" fill-opacity="1"><g transform="translate(223.236388, 57.124738)"><g><path d="M 3.09375 0 L 2.1875 0 L 2.1875 -3.71875 L 0.859375 -3.71875 L 0.859375 -4.59375 L 2.1875 -4.59375 L 2.1875 -5.953125 L 3.09375 -5.953125 L 3.09375 -4.59375 L 4.65625 -4.59375 L 4.65625 -3.71875 L 3.09375 -3.71875 Z M 3.09375 0 "/></g></g></g><g fill="#000000" fill-opacity="1"><g transform="translate(233.186708, 57.124738)"><g><path d="M 6.09375 -0.609375 L 6.078125 -0.609375 C 5.921875 -0.484375 5.71875 -0.367188 5.46875 -0.265625 C 5.226562 -0.160156 4.960938 -0.0703125 4.671875 0 C 4.378906 0.0625 4.082031 0.09375 3.78125 0.09375 C 3.195312 0.09375 2.6875 -0.00390625 2.25 -0.203125 C 1.8125 -0.410156 1.46875 -0.691406 1.21875 -1.046875 C 0.976562 -1.398438 0.859375 -1.800781 0.859375 -2.25 C 0.859375 -2.757812 0.988281 -3.195312 1.25 -3.5625 C 1.507812 -3.925781 1.851562 -4.207031 2.28125 -4.40625 C 2.71875 -4.601562 3.191406 -4.703125 3.703125 -4.703125 C 4.179688 -4.703125 4.613281 -4.601562 5 -4.40625 C 5.394531 -4.21875 5.707031 -3.957031 5.9375 -3.625 C 6.175781 -3.289062 6.296875 -2.90625 6.296875 -2.46875 L 6.28125 -2.015625 L 1.78125 -2.015625 C 1.863281 -1.617188 2.097656 -1.304688 2.484375 -1.078125 C 2.867188 -0.859375 3.347656 -0.75 3.921875 -0.75 C 4.359375 -0.75 4.710938 -0.804688 4.984375 -0.921875 C 5.265625 -1.046875 5.492188 -1.164062 5.671875 -1.28125 Z M 3.703125 -3.875 C 3.234375 -3.875 2.820312 -3.785156 2.46875 -3.609375 C 2.113281 -3.429688 1.890625 -3.140625 1.796875 -2.734375 L 5.375 -2.734375 L 5.375 -2.859375 C 5.34375 -3.054688 5.242188 -3.226562 5.078125 -3.375 C 4.921875 -3.53125 4.71875 -3.648438 4.46875 -3.734375 C 4.226562 -3.828125 3.972656 -3.875 3.703125 -3.875 Z M 3.703125 -3.875 "/></g></g></g><g fill="#000000" fill-opacity="1"><g transform="translate(244.773543, 57.124738)"><g><path d="M 4.28125 -4.671875 C 4.675781 -4.671875 5.019531 -4.585938 5.3125 -4.421875 C 5.601562 -4.253906 5.804688 -4.003906 5.921875 -3.671875 C 6.035156 -3.816406 6.191406 -3.960938 6.390625 -4.109375 C 6.597656 -4.265625 6.832031 -4.394531 7.09375 -4.5 C 7.351562 -4.613281 7.632812 -4.671875 7.9375 -4.671875 C 8.414062 -4.671875 8.789062 -4.582031 9.0625 -4.40625 C 9.332031 -4.226562 9.523438 -3.988281 9.640625 -3.6875 C 9.753906 -3.382812 9.8125 -3.050781 9.8125 -2.6875 L 9.8125 0 L 8.90625 0 L 8.90625 -2.578125 C 8.90625 -2.953125 8.816406 -3.253906 8.640625 -3.484375 C 8.460938 -3.722656 8.171875 -3.84375 7.765625 -3.84375 C 7.441406 -3.84375 7.148438 -3.773438 6.890625 -3.640625 C 6.640625 -3.515625 6.4375 -3.335938 6.28125 -3.109375 C 6.132812 -2.890625 6.0625 -2.644531 6.0625 -2.375 L 6.0625 0 L 5.15625 0 L 5.15625 -2.59375 C 5.15625 -2.957031 5.054688 -3.253906 4.859375 -3.484375 C 4.660156 -3.722656 4.332031 -3.84375 3.875 -3.84375 C 3.582031 -3.84375 3.316406 -3.769531 3.078125 -3.625 C 2.847656 -3.488281 2.664062 -3.316406 2.53125 -3.109375 C 2.40625 -2.910156 2.34375 -2.710938 2.34375 -2.515625 L 2.34375 0 L 1.4375 0 L 1.4375 -4.59375 L 2.34375 -4.59375 L 2.34375 -3.84375 C 2.53125 -4.050781 2.785156 -4.238281 3.109375 -4.40625 C 3.441406 -4.582031 3.832031 -4.671875 4.28125 -4.671875 Z M 4.28125 -4.671875 "/></g></g></g><path fill="#000000" d="M 67.894531 16.050781 L 71.425781 16.050781 L 71.425781 19.582031 L 67.894531 19.582031 Z M 67.894531 16.050781 " fill-opacity="1" fill-rule="nonzero"/><path fill="#000000" d="M 74.957031 16.050781 L 78.488281 16.050781 L 78.488281 19.582031 L 74.957031 19.582031 Z M 74.957031 16.050781 " fill-opacity="1" fill-rule="nonzero"/><path fill="#000000" d="M 82.015625 16.050781 L 85.546875 16.050781 L 85.546875 19.582031 L 82.015625 19.582031 Z M 82.015625 16.050781 " fill-opacity="1" fill-rule="nonzero"/><path fill="#000000" d="M 9.648438 17.816406 L 27.300781 17.816406 C 28.277344 17.816406 29.0625 17.027344 29.0625 16.050781 L 29.0625 8.992188 C 29.0625 8.015625 28.277344 7.226562 27.300781 7.226562 L 9.648438 7.226562 C 8.671875 7.226562 7.882812 8.015625 7.882812 8.992188 L 7.882812 16.050781 C 7.882812 17.027344 8.671875 17.816406 9.648438 17.816406 Z M 11.414062 10.757812 L 25.535156 10.757812 L 25.535156 14.285156 L 11.414062 14.285156 Z M 11.414062 10.757812 " fill-opacity="1" fill-rule="nonzero"/><path fill="#000000" d="M 46.714844 39 C 32.117188 39 20.238281 50.878906 20.238281 65.476562 C 20.238281 80.078125 32.117188 91.957031 46.714844 91.957031 C 61.3125 91.957031 73.191406 80.078125 73.191406 65.476562 C 73.191406 50.878906 61.3125 39 46.714844 39 Z M 46.714844 88.425781 C 38.972656 88.425781 32.128906 84.5625 27.96875 78.667969 C 31.019531 77.984375 32.765625 75.574219 34.203125 73.5625 C 35.902344 71.1875 37.054688 69.730469 39.296875 69.730469 C 41.539062 69.730469 42.691406 71.1875 44.390625 73.5625 C 46.078125 75.929688 48.183594 78.875 52.355469 78.875 C 56.527344 78.875 58.632812 75.929688 60.324219 73.5625 C 62.023438 71.1875 63.179688 69.730469 65.421875 69.730469 C 66.730469 69.730469 67.746094 70.253906 68.847656 71.445312 C 66.207031 81.210938 57.296875 88.425781 46.714844 88.425781 Z M 69.5625 67.402344 C 68.46875 66.695312 67.121094 66.199219 65.421875 66.199219 C 61.246094 66.199219 59.144531 69.144531 57.453125 71.511719 C 55.753906 73.886719 54.601562 75.34375 52.351562 75.34375 C 50.109375 75.34375 48.957031 73.886719 47.261719 71.511719 C 45.570312 69.144531 43.46875 66.199219 39.292969 66.199219 C 35.121094 66.199219 33.019531 69.144531 31.328125 71.507812 C 29.632812 73.886719 28.476562 75.339844 26.234375 75.339844 C 26.164062 75.339844 26.09375 75.332031 26.019531 75.328125 C 24.59375 72.339844 23.769531 69.007812 23.769531 65.476562 C 23.769531 52.824219 34.0625 42.53125 46.714844 42.53125 C 59.367188 42.53125 69.660156 52.824219 69.660156 65.476562 C 69.660156 66.125 69.617188 66.765625 69.5625 67.402344 Z M 69.5625 67.402344 " fill-opacity="1" fill-rule="nonzero"/><g clip-path="url(#900ed67bdd)"><path fill="#000000" d="M 7.882812 106.078125 L 85.546875 106.078125 C 89.441406 106.078125 92.605469 102.910156 92.605469 99.015625 L 92.605469 7.226562 C 92.605469 3.332031 89.441406 0.164062 85.546875 0.164062 L 7.882812 0.164062 C 3.988281 0.164062 0.824219 3.332031 0.824219 7.226562 L 0.824219 99.015625 C 0.824219 102.910156 3.988281 106.078125 7.882812 106.078125 Z M 85.546875 102.546875 L 7.882812 102.546875 C 5.9375 102.546875 4.351562 100.964844 4.351562 99.015625 L 4.351562 28.40625 L 89.078125 28.40625 L 89.078125 99.015625 C 89.078125 100.964844 87.492188 102.546875 85.546875 102.546875 Z M 7.882812 3.695312 L 85.546875 3.695312 C 87.492188 3.695312 89.078125 5.277344 89.078125 7.226562 L 89.078125 24.878906 L 4.351562 24.878906 L 4.351562 7.226562 C 4.351562 5.277344 5.9375 3.695312 7.882812 3.695312 Z M 7.882812 3.695312 " fill-opacity="1" fill-rule="nonzero"/></g><path fill="#000000" d="M 67.894531 8.992188 L 71.425781 8.992188 L 71.425781 12.519531 L 67.894531 12.519531 Z M 67.894531 8.992188 " fill-opacity="1" fill-rule="nonzero"/><path fill="#000000" d="M 74.957031 8.992188 L 78.488281 8.992188 L 78.488281 12.519531 L 74.957031 12.519531 Z M 74.957031 8.992188 " fill-opacity="1" fill-rule="nonzero"/><path fill="#000000" d="M 82.015625 8.992188 L 85.546875 8.992188 L 85.546875 12.519531 L 82.015625 12.519531 Z M 82.015625 8.992188 " fill-opacity="1" fill-rule="nonzero"/><path fill="#000000" d="M 57.304688 21.347656 C 61.199219 21.347656 64.367188 18.179688 64.367188 14.285156 C 64.367188 10.390625 61.199219 7.226562 57.304688 7.226562 C 53.410156 7.226562 50.246094 10.390625 50.246094 14.285156 C 50.246094 18.179688 53.410156 21.347656 57.304688 21.347656 Z M 57.304688 10.757812 C 59.253906 10.757812 60.835938 12.339844 60.835938 14.285156 C 60.835938 16.234375 59.253906 17.816406 57.304688 17.816406 C 55.359375 17.816406 53.777344 16.234375 53.777344 14.285156 C 53.777344 12.339844 55.359375 10.757812 57.304688 10.757812 Z M 57.304688 10.757812 " fill-opacity="1" fill-rule="nonzero"/><path fill="#000000" d="M 46.714844 44.292969 L 46.714844 47.824219 C 53.378906 47.824219 59.402344 51.515625 62.441406 57.453125 L 65.585938 55.847656 C 61.941406 48.722656 54.710938 44.292969 46.714844 44.292969 Z M 46.714844 44.292969 " fill-opacity="1" fill-rule="nonzero"/><path fill="#000000" d="M 46.714844 31.9375 C 28.222656 31.9375 13.179688 46.984375 13.179688 65.476562 C 13.179688 83.972656 28.222656 99.015625 46.714844 99.015625 C 65.207031 99.015625 80.25 83.972656 80.25 65.476562 C 80.25 46.984375 65.207031 31.9375 46.714844 31.9375 Z M 46.714844 95.484375 C 30.167969 95.484375 16.707031 82.023438 16.707031 65.476562 C 16.707031 48.929688 30.167969 35.46875 46.714844 35.46875 C 63.261719 35.46875 76.722656 48.929688 76.722656 65.476562 C 76.722656 82.023438 63.261719 95.484375 46.714844 95.484375 Z M 46.714844 95.484375 " fill-opacity="1" fill-rule="nonzero"/><path stroke-linecap="butt" transform="matrix(0.745867, 0, 0, 0.74621, 136.004898, 78.837226)" fill="none" stroke-linejoin="miter" d="M -0.0013291 1.997961 L 102.06105 1.997961 " stroke="#000000" stroke-width="4" stroke-opacity="1" stroke-miterlimit="4"/></svg>