<svg xmlns="http://www.w3.org/2000/svg" xmlns:xlink="http://www.w3.org/1999/xlink" width="50" zoomAndPan="magnify" viewBox="0 0 37.5 32.999998" height="44" preserveAspectRatio="xMidYMid meet" version="1.0"><defs><clipPath id="81e1e9b675"><path d="M 10 0.3125 L 37 0.3125 L 37 19 L 10 19 Z M 10 0.3125 " clip-rule="nonzero"/></clipPath><clipPath id="680e017127"><path d="M 0 18 L 37.007812 18 L 37.007812 32.78125 L 0 32.78125 Z M 0 18 " clip-rule="nonzero"/></clipPath></defs><g clip-path="url(#81e1e9b675)"><path fill="#000000" d="M 10.0625 11.113281 L 10.0625 13.558594 C 10.0625 13.90625 10.347656 14.1875 10.691406 14.1875 L 15.769531 14.1875 C 15.738281 14.472656 15.722656 14.765625 15.722656 15.058594 L 15.722656 17.589844 C 15.722656 17.9375 16.003906 18.222656 16.347656 18.222656 L 30.179688 18.222656 C 30.523438 18.222656 30.808594 17.9375 30.808594 17.589844 L 30.808594 15.058594 C 30.808594 14.765625 30.792969 14.472656 30.761719 14.1875 L 35.835938 14.1875 C 36.183594 14.1875 36.464844 13.90625 36.464844 13.558594 L 36.464844 11.113281 C 36.464844 8.734375 34.925781 6.714844 32.796875 6.003906 C 33.390625 5.402344 33.753906 4.574219 33.753906 3.65625 C 33.753906 1.8125 32.261719 0.3125 30.429688 0.3125 C 28.636719 0.3125 27.175781 1.742188 27.105469 3.523438 C 26.667969 1.679688 25.015625 0.3125 23.050781 0.3125 C 21.191406 0.3125 19.609375 1.535156 19.066406 3.238281 C 18.863281 1.59375 17.464844 0.3125 15.777344 0.3125 C 13.945312 0.3125 12.453125 1.8125 12.453125 3.65625 C 12.453125 4.613281 12.851562 5.484375 13.503906 6.089844 C 11.492188 6.867188 10.0625 8.828125 10.0625 11.113281 Z M 35.207031 11.113281 L 35.207031 12.925781 L 30.5 12.925781 C 29.941406 11.011719 28.652344 9.40625 26.957031 8.441406 C 27.726562 7.53125 28.859375 6.992188 30.070312 6.992188 L 31.121094 6.992188 C 33.375 7 35.207031 8.84375 35.207031 11.113281 Z M 30.429688 1.574219 C 31.570312 1.574219 32.496094 2.507812 32.496094 3.65625 C 32.496094 4.800781 31.570312 5.734375 30.429688 5.734375 C 29.289062 5.734375 28.363281 4.800781 28.363281 3.65625 C 28.363281 2.507812 29.289062 1.574219 30.429688 1.574219 Z M 27.230469 4.558594 C 27.398438 5.152344 27.71875 5.679688 28.160156 6.089844 C 27.222656 6.457031 26.398438 7.070312 25.785156 7.902344 C 25.730469 7.878906 25.675781 7.863281 25.621094 7.847656 C 26.585938 7.082031 27.222656 5.894531 27.230469 4.558594 Z M 23.050781 1.574219 C 24.664062 1.574219 25.984375 2.898438 25.984375 4.527344 C 25.984375 6.15625 24.671875 7.476562 23.050781 7.476562 C 21.433594 7.476562 20.121094 6.148438 20.121094 4.527344 C 20.121094 2.90625 21.433594 1.574219 23.050781 1.574219 Z M 23.265625 8.734375 C 26.730469 8.734375 29.550781 11.570312 29.550781 15.058594 L 29.550781 16.957031 L 16.976562 16.957031 L 16.976562 15.058594 C 16.976562 11.570312 19.800781 8.734375 23.265625 8.734375 Z M 18.878906 4.835938 C 18.925781 5.492188 19.125 6.105469 19.4375 6.644531 C 19.035156 6.367188 18.597656 6.15625 18.132812 6.003906 C 18.457031 5.671875 18.714844 5.277344 18.878906 4.835938 Z M 15.769531 1.574219 C 16.90625 1.574219 17.835938 2.507812 17.835938 3.65625 C 17.835938 4.800781 16.90625 5.734375 15.769531 5.734375 C 14.628906 5.734375 13.703125 4.800781 13.703125 3.65625 C 13.703125 2.507812 14.628906 1.574219 15.769531 1.574219 Z M 15.40625 7 L 16.460938 7 C 17.667969 7 18.792969 7.53125 19.570312 8.449219 C 17.875 9.414062 16.585938 11.019531 16.027344 12.933594 L 11.320312 12.933594 L 11.320312 11.121094 C 11.320312 8.84375 13.152344 7 15.40625 7 Z M 15.40625 7 " fill-opacity="1" fill-rule="nonzero"/></g><g clip-path="url(#680e017127)"><path fill="#000000" d="M 5.851562 18.65625 L 0.632812 18.65625 C 0.289062 18.65625 0.0078125 18.941406 0.0078125 19.289062 L 0.0078125 30.992188 C 0.0078125 31.339844 0.289062 31.625 0.632812 31.625 L 5.851562 31.625 C 6.199219 31.625 6.480469 31.339844 6.480469 30.992188 L 6.480469 29.988281 L 8.996094 29.988281 L 16.453125 32.371094 C 18.140625 33.003906 19.5625 33.3125 20.976562 33.3125 C 22.398438 33.3125 23.820312 32.996094 25.519531 32.363281 C 25.582031 32.339844 25.644531 32.304688 25.699219 32.257812 L 36.621094 23.292969 C 36.652344 23.261719 36.683594 23.226562 36.714844 23.195312 C 37.492188 22.222656 37.453125 20.738281 36.621094 19.8125 C 35.796875 18.886719 34.46875 18.792969 33.542969 19.597656 L 28.089844 24.035156 C 28.089844 23.980469 28.089844 23.925781 28.089844 23.867188 C 28.066406 22.546875 27.035156 21.464844 25.785156 21.464844 L 19.726562 21.464844 C 19.382812 21.464844 19.050781 21.257812 18.847656 20.917969 C 18.800781 20.847656 18.746094 20.785156 18.675781 20.730469 C 16.105469 18.855469 12.859375 18.5 10.007812 19.78125 L 8.957031 20.253906 L 6.480469 20.253906 L 6.480469 19.289062 C 6.480469 18.941406 6.207031 18.65625 5.851562 18.65625 Z M 3.148438 29.414062 C 2.804688 29.414062 2.519531 29.128906 2.519531 28.78125 C 2.519531 28.429688 2.804688 28.148438 3.148438 28.148438 C 3.496094 28.148438 3.777344 28.429688 3.777344 28.78125 C 3.777344 29.128906 3.496094 29.414062 3.148438 29.414062 Z M 5.222656 20.894531 L 5.222656 30.359375 L 4.195312 30.359375 C 4.695312 30.019531 5.035156 29.445312 5.035156 28.78125 C 5.035156 27.734375 4.1875 26.882812 3.148438 26.882812 C 2.113281 26.882812 1.261719 27.734375 1.261719 28.78125 C 1.261719 29.4375 1.601562 30.019531 2.105469 30.359375 L 1.261719 30.359375 L 1.261719 19.921875 L 5.222656 19.921875 Z M 9.097656 21.527344 C 9.183594 21.527344 9.269531 21.511719 9.347656 21.472656 L 10.527344 20.941406 C 12.929688 19.867188 15.65625 20.152344 17.851562 21.695312 C 18.289062 22.351562 18.980469 22.730469 19.734375 22.730469 L 25.792969 22.730469 C 26.359375 22.730469 26.832031 23.25 26.839844 23.882812 C 26.847656 24.242188 26.722656 24.574219 26.492188 24.800781 C 26.382812 24.914062 26.25 25 26.117188 25.046875 C 25.9375 25.078125 25.753906 25.09375 25.574219 25.09375 L 18.832031 25.09375 C 18.488281 25.09375 18.203125 25.378906 18.203125 25.726562 C 18.203125 26.074219 18.488281 26.359375 18.832031 26.359375 L 25.855469 26.359375 C 26.046875 26.359375 26.234375 26.335938 26.414062 26.289062 C 27.199219 26.144531 27.9375 25.796875 28.589844 25.277344 L 34.359375 20.578125 C 34.367188 20.570312 34.367188 20.570312 34.375 20.5625 C 34.78125 20.207031 35.339844 20.253906 35.710938 20.65625 C 36.117188 21.109375 36.148438 21.859375 35.789062 22.359375 L 25.007812 31.214844 C 21.960938 32.339844 19.972656 32.324219 16.898438 31.175781 C 16.890625 31.175781 16.882812 31.167969 16.867188 31.167969 L 9.308594 28.746094 C 9.246094 28.730469 9.183594 28.714844 9.121094 28.714844 L 6.480469 28.714844 L 6.480469 21.519531 L 9.097656 21.519531 Z M 9.097656 21.527344 " fill-opacity="1" fill-rule="nonzero"/></g></svg>